# xmcd CD database file
#
# Track frame offsets:
#	150
#	27931
#	66730
#	101619
#	130143
#	154750
#	189627
#	207106
#	243516
#	266821
#	289342
#	315271
#
# Disc length: 4700 seconds
#
# Revision: 0
# Processed by: cddbd v1.5.1PL0 Copyright (c) Steve Scherf et al.
# Submitted via: CDex 1.51
#
DISCID=b3125a0c
DTITLE=Nils Petter Molvaer - Recoloured
DYEAR=2001
DGENRE=Jazz
TTITLE0=Merciful (Herberts We Mix)
TTITLE1=Dead Indeed (Jan Bang´s 7:00 AM Mix)
TTITLE2=Solid Ether (Underlying Love Mix by Joakim Lone)
TTITLE3=Vilderness (Cinematic Orchestra Mix)
TTITLE4=Vilderness (Chilliminati Mix)
TTITLE5=Ligotage (Phonoversion)
TTITLE6=Kakonita (Deathprod Mix)
TTITLE7=Dead Indeed ( Tunnel Mix by Mind over Midi)
TTITLE8=Ligotage (TeeBee Mix)
TTITLE9=Solid Ether (Funkstörung Mix)
TTITLE10=Dead Indeed (Pascal Gabriel Mix)
TTITLE11=Merciful/Ligotage (Incunabula Mix by Bill Laswell)
EXTD=YEAR: 2001
EXTT0=
EXTT1=
EXTT2=
EXTT3=
EXTT4=
EXTT5=
EXTT6=
EXTT7=
EXTT8=
EXTT9=
EXTT10=
EXTT11=
PLAYORDER=
